<svg width="32" height="20" viewBox="0 0 32 20" fill="none" xmlns="http://www.w3.org/2000/svg">
<path d="M28.4727 1.32399H20.7378V3.25545H28.4727V1.32399ZM24.6582 7.9595C23.75 7.9595 23.0133 8.23209 22.4482 8.77726C21.8831 9.32243 21.5703 10.0623 21.5098 10.9969H27.6855C27.5039 8.97196 26.4948 7.9595 24.6582 7.9595ZM24.9004 17.0717C25.5361 17.0717 26.1517 16.9055 26.7471 16.5732C27.3424 16.2409 27.7259 15.7892 27.8975 15.2181H31.2427C30.2336 18.406 28.0791 20 24.7793 20C22.6198 20 20.9018 19.3146 19.6252 17.9439C18.3487 16.5732 17.7104 14.7715 17.7104 12.5389C17.7104 10.379 18.3689 8.58515 19.6858 7.15732C21.0027 5.72949 22.7005 5.01558 24.7793 5.01558C26.1719 5.01558 27.3853 5.36864 28.4197 6.07477C29.454 6.78089 30.226 7.71028 30.7356 8.86293C31.2452 10.0156 31.5 11.3032 31.5 12.7259C31.5 12.9024 31.4899 13.1464 31.4697 13.4579H21.5098C21.5098 14.6106 21.7999 15.501 22.3801 16.1293C22.9604 16.7575 23.8005 17.0717 24.9004 17.0717ZM4.69287 16.2928H9.17334C11.242 16.2928 12.2764 15.4258 12.2764 13.6916C12.2764 11.8224 11.2723 10.8879 9.26416 10.8879H4.69287V16.2928ZM4.69287 7.92835H8.94629C9.7334 7.92835 10.3565 7.73884 10.8157 7.35981C11.2748 6.98079 11.5044 6.39149 11.5044 5.5919C11.5044 4.09657 10.5457 3.34891 8.62842 3.34891H4.69287V7.92835ZM0.5 0H9.49121C10.3691 0 11.1512 0.0726895 11.8374 0.218069C12.5236 0.363448 13.1619 0.610073 13.7522 0.957944C14.3425 1.30582 14.7966 1.80685 15.1145 2.46106C15.4324 3.11526 15.5913 3.91485 15.5913 4.85981C15.5913 6.73936 14.7235 8.10488 12.9878 8.95639C14.1382 9.28868 15.006 9.88577 15.5913 10.7477C16.1766 11.6096 16.4692 12.6687 16.4692 13.9252C16.4692 14.7041 16.3456 15.4128 16.0984 16.0514C15.8512 16.69 15.5181 17.2274 15.0994 17.6636C14.6806 18.0997 14.1836 18.4683 13.6084 18.7695C13.0332 19.0706 12.4227 19.2887 11.7769 19.4237C11.131 19.5587 10.4549 19.6262 9.74854 19.6262H0.5V0Z" fill="#121212" fill-opacity="0.87"/>
</svg>
