<svg width="24" height="18" viewBox="0 0 24 18" fill="none" xmlns="http://www.w3.org/2000/svg">
<path d="M23.5 5.80398V15.9545C23.5 16.517 23.2989 16.9986 22.8968 17.3991C22.4946 17.7997 22.0112 18 21.4464 18H2.55357C1.98884 18 1.50539 17.7997 1.10324 17.3991C0.701079 16.9986 0.5 16.517 0.5 15.9545V5.80398C0.876488 6.22159 1.30859 6.59233 1.79632 6.91619C4.89379 9.01278 7.02009 10.483 8.17522 11.3267C8.66295 11.6847 9.05869 11.9638 9.36244 12.1641C9.6662 12.3643 10.0705 12.5689 10.5753 12.7777C11.0802 12.9865 11.5508 13.0909 11.9872 13.0909H12.0128C12.4492 13.0909 12.9198 12.9865 13.4247 12.7777C13.9295 12.5689 14.3338 12.3643 14.6376 12.1641C14.9413 11.9638 15.3371 11.6847 15.8248 11.3267C17.2794 10.2784 19.41 8.80824 22.2165 6.91619C22.7042 6.58381 23.1321 6.21307 23.5 5.80398ZM23.5 2.04545C23.5 2.71875 23.2904 3.36222 22.8711 3.97585C22.4518 4.58949 21.9299 5.11364 21.3052 5.5483C18.088 7.77273 16.0858 9.15767 15.2985 9.70312C15.213 9.76278 15.0312 9.89276 14.7531 10.093C14.475 10.2933 14.244 10.4553 14.06 10.5788C13.876 10.7024 13.6536 10.8409 13.3926 10.9943C13.1316 11.1477 12.8856 11.2628 12.6546 11.3395C12.4235 11.4162 12.2096 11.4545 12.0128 11.4545H11.9872C11.7904 11.4545 11.5765 11.4162 11.3454 11.3395C11.1144 11.2628 10.8684 11.1477 10.6074 10.9943C10.3464 10.8409 10.124 10.7024 9.94001 10.5788C9.75605 10.4553 9.52502 10.2933 9.24693 10.093C8.96884 9.89276 8.78702 9.76278 8.70145 9.70312C7.92281 9.15767 6.8019 8.37997 5.33873 7.37003C3.87556 6.36009 2.99851 5.75284 2.70759 5.5483C2.17708 5.19034 1.67653 4.69815 1.20592 4.07173C0.735305 3.44531 0.5 2.86364 0.5 2.3267C0.5 1.66193 0.677548 1.10795 1.03265 0.664773C1.38774 0.221591 1.89472 0 2.55357 0H21.4464C22.0026 0 22.4839 0.200284 22.8903 0.600852C23.2968 1.00142 23.5 1.48295 23.5 2.04545Z" fill="white"/>
</svg>
