<svg width="20" height="20" viewBox="0 0 20 20" fill="none" xmlns="http://www.w3.org/2000/svg">
<path d="M1.3744 6.68373C-0.458135 8.48071 -0.458135 11.4848 1.3744 13.317L6.68373 18.6259C8.48071 20.458 11.4848 20.458 13.317 18.6259L18.6259 13.317C20.458 11.4848 20.458 8.48071 18.6259 6.68373L13.317 1.3744C11.4848 -0.458135 8.48071 -0.458135 6.68373 1.3744L1.3744 6.68373ZM12.3247 12.3247C11.0395 13.606 8.96121 13.606 7.67988 12.3247C6.39464 11.0395 6.39464 8.96121 7.67988 7.67988C8.96121 6.39464 11.0395 6.39464 12.3247 7.67988C13.606 8.96121 13.606 11.0395 12.3247 12.3247Z" fill="#EDF2F4"/>
</svg>
